{
  "accessors": [
    {
      "bufferView": 1,
      "componentType": 5126,
      "count": 1062,
      "max": [
        0.55014997720718384,
        1.2447019815444946,
        2.2909901142120361
      ],
      "min": [
        -0.55014997720718384,
        -1.2682839632034302,
        -0.032813001424074173
      ],
      "type": "VEC3"
    },
    {
      "bufferView": 1,
      "byteOffset": 12744,
      "componentType": 5126,
      "count": 1062,
      "max": [
        0.99684053659439087,
        0.97648811340332031,
        0.99771779775619507
      ],
      "min": [
        -0.99684053659439087,
        -0.98715823888778687,
        -1
      ],
      "type": "VEC3"
    },
    {
      "bufferView": 2,
      "componentType": 5126,
      "count": 1062,
      "max": [
        0.99217700958251953,
        0.98896306753158569,
        0.99941325187683105,
        1
      ],
      "min": [
        -0.99217706918716431,
        -1,
        -0.99960368871688843,
        -1
      ],
      "type": "VEC4"
    },
    {
      "bufferView": 0,
      "componentType": 5125,
      "count": 1068,
      "max": [
        1061
      ],
      "min": [
        0
      ],
      "type": "SCALAR"
    }
  ],
  "asset": {
    "extras": {
      "author": "NegaTheImpmon9508 (https://sketchfab.com/NegaTheImpmon9508)",
      "license": "CC-BY-4.0 (http://creativecommons.org/licenses/by/4.0/)",
      "source": "https://sketchfab.com/models/222e86a241b143b8a82ea5e9b303557a",
      "title": "Zoey"
    },
    "generator": "Sketchfab-3.18.7",
    "version": "2.0"
  },
  "bufferViews": [
    {
      "buffer": 0,
      "byteLength": 4272,
      "byteOffset": 0,
      "name": "floatBufferViews",
      "target": 34963
    },
    {
      "buffer": 0,
      "byteLength": 25488,
      "byteOffset": 4272,
      "byteStride": 12,
      "name": "floatBufferViews",
      "target": 34962
    },
    {
      "buffer": 0,
      "byteLength": 16992,
      "byteOffset": 29760,
      "byteStride": 16,
      "name": "floatBufferViews",
      "target": 34962
    }
  ],
  "buffers": [
    {
      "byteLength": 46752,
      "uri": "scene.bin"
    }
  ],
  "materials": [
    {
      "doubleSided": true,
      "emissiveFactor": [
        0,
        0,
        0
      ],
      "name": "Scene_-_Root",
      "pbrMetallicRoughness": {
        "baseColorFactor": [
          1,
          1,
          1,
          1
        ],
        "metallicFactor": 0,
        "roughnessFactor": 0.59999999999999998
      }
    }
  ],
  "meshes": [
    {
      "primitives": [
        {
          "attributes": {
            "NORMAL": 1,
            "POSITION": 0,
            "TANGENT": 2
          },
          "indices": 3,
          "material": 0,
          "mode": 4
        }
      ]
    }
  ],
  "nodes": [
    {
      "children": [
        1
      ],
      "name": "RootNode (gltf orientation matrix)",
      "rotation": [
        -0.70710678118654746,
        -0,
        -0,
        0.70710678118654757
      ]
    },
    {
      "children": [
        2
      ],
      "name": "RootNode (model correction matrix)"
    },
    {
      "children": [
        3
      ],
      "name": "99c9e471872c4831b3f41332216b1368.obj.cleaner.materialmerger.gles"
    },
    {
      "mesh": 0,
      "name": ""
    }
  ],
  "scene": 0,
  "scenes": [
    {
      "name": "OSG_Scene",
      "nodes": [
        0
      ]
    }
  ]
}

